<mxfile host="app.diagrams.net" modified="2024-05-20T16:38:47.050Z" agent="Mozilla/5.0 (Windows NT 10.0; Win64; x64) AppleWebKit/537.36 (KHTML, like Gecko) Chrome/122.0.0.0 YaBrowser/24.4.0.0 Safari/537.36" etag="PT8kPNfCIpcSJxwt5Ssz" version="24.4.4" type="device">
  <diagram id="R2lEEEUBdFMjLlhIrx00" name="Page-1">
    <mxGraphModel dx="1216" dy="1082" grid="0" gridSize="10" guides="1" tooltips="1" connect="1" arrows="1" fold="1" page="0" pageScale="1" pageWidth="850" pageHeight="1100" math="0" shadow="0" extFonts="Permanent Marker^https://fonts.googleapis.com/css?family=Permanent+Marker">
      <root>
        <mxCell id="0" />
        <mxCell id="1" parent="0" />
        <mxCell id="lD7IAFioV_3JpQAQfQ4Z-1" value="Браузер" style="rounded=0;whiteSpace=wrap;html=1;" vertex="1" parent="1">
          <mxGeometry x="120" y="80" width="320" height="40" as="geometry" />
        </mxCell>
        <mxCell id="lD7IAFioV_3JpQAQfQ4Z-2" value="Template" style="rounded=0;whiteSpace=wrap;html=1;" vertex="1" parent="1">
          <mxGeometry x="120" y="160" width="120" height="40" as="geometry" />
        </mxCell>
        <mxCell id="lD7IAFioV_3JpQAQfQ4Z-3" value="View" style="rounded=0;whiteSpace=wrap;html=1;" vertex="1" parent="1">
          <mxGeometry x="120" y="240" width="320" height="40" as="geometry" />
        </mxCell>
        <mxCell id="lD7IAFioV_3JpQAQfQ4Z-4" value="URL dispatcher" style="rounded=0;whiteSpace=wrap;html=1;" vertex="1" parent="1">
          <mxGeometry x="320" y="160" width="120" height="40" as="geometry" />
        </mxCell>
        <mxCell id="lD7IAFioV_3JpQAQfQ4Z-5" value="Model" style="rounded=0;whiteSpace=wrap;html=1;" vertex="1" parent="1">
          <mxGeometry x="120" y="320" width="320" height="40" as="geometry" />
        </mxCell>
        <mxCell id="lD7IAFioV_3JpQAQfQ4Z-6" value="PostgreSQL" style="rounded=0;whiteSpace=wrap;html=1;" vertex="1" parent="1">
          <mxGeometry x="120" y="400" width="320" height="40" as="geometry" />
        </mxCell>
        <mxCell id="lD7IAFioV_3JpQAQfQ4Z-9" value="" style="shape=flexArrow;endArrow=classic;html=1;rounded=0;width=10.857142857142858;endSize=6.24;exitX=0.844;exitY=1;exitDx=0;exitDy=0;exitPerimeter=0;entryX=0.584;entryY=0.012;entryDx=0;entryDy=0;entryPerimeter=0;" edge="1" parent="1">
          <mxGeometry width="50" height="50" relative="1" as="geometry">
            <mxPoint x="379.79999999999995" y="120" as="sourcePoint" />
            <mxPoint x="379.79999999999995" y="160.48000000000002" as="targetPoint" />
          </mxGeometry>
        </mxCell>
        <mxCell id="lD7IAFioV_3JpQAQfQ4Z-10" value="" style="shape=flexArrow;endArrow=classic;html=1;rounded=0;width=10.857142857142858;endSize=6.24;exitX=0.844;exitY=1;exitDx=0;exitDy=0;exitPerimeter=0;entryX=0.584;entryY=0.012;entryDx=0;entryDy=0;entryPerimeter=0;" edge="1" parent="1">
          <mxGeometry width="50" height="50" relative="1" as="geometry">
            <mxPoint x="379.8" y="200" as="sourcePoint" />
            <mxPoint x="379.8" y="240" as="targetPoint" />
          </mxGeometry>
        </mxCell>
        <mxCell id="lD7IAFioV_3JpQAQfQ4Z-11" value="" style="shape=flexArrow;endArrow=classic;html=1;rounded=0;width=10.857142857142858;endSize=6.24;exitX=0.844;exitY=1;exitDx=0;exitDy=0;exitPerimeter=0;entryX=0.584;entryY=0.012;entryDx=0;entryDy=0;entryPerimeter=0;" edge="1" parent="1">
          <mxGeometry width="50" height="50" relative="1" as="geometry">
            <mxPoint x="379.8" y="280" as="sourcePoint" />
            <mxPoint x="379.8" y="320" as="targetPoint" />
          </mxGeometry>
        </mxCell>
        <mxCell id="lD7IAFioV_3JpQAQfQ4Z-12" value="" style="shape=flexArrow;endArrow=classic;html=1;rounded=0;width=10.857142857142858;endSize=6.24;exitX=0.844;exitY=1;exitDx=0;exitDy=0;exitPerimeter=0;entryX=0.584;entryY=0.012;entryDx=0;entryDy=0;entryPerimeter=0;" edge="1" parent="1">
          <mxGeometry width="50" height="50" relative="1" as="geometry">
            <mxPoint x="379.8" y="360" as="sourcePoint" />
            <mxPoint x="379.8" y="400" as="targetPoint" />
          </mxGeometry>
        </mxCell>
        <mxCell id="lD7IAFioV_3JpQAQfQ4Z-13" value="" style="shape=flexArrow;endArrow=classic;html=1;rounded=0;width=10.857142857142858;endSize=6.24;entryX=0.25;entryY=1;entryDx=0;entryDy=0;" edge="1" parent="1">
          <mxGeometry width="50" height="50" relative="1" as="geometry">
            <mxPoint x="179.8" y="400" as="sourcePoint" />
            <mxPoint x="179.8" y="360" as="targetPoint" />
          </mxGeometry>
        </mxCell>
        <mxCell id="lD7IAFioV_3JpQAQfQ4Z-16" value="" style="shape=flexArrow;endArrow=classic;html=1;rounded=0;width=10.857142857142858;endSize=6.24;entryX=0.25;entryY=1;entryDx=0;entryDy=0;" edge="1" parent="1">
          <mxGeometry width="50" height="50" relative="1" as="geometry">
            <mxPoint x="179.8" y="320" as="sourcePoint" />
            <mxPoint x="179.8" y="280" as="targetPoint" />
          </mxGeometry>
        </mxCell>
        <mxCell id="lD7IAFioV_3JpQAQfQ4Z-17" value="" style="shape=flexArrow;endArrow=classic;html=1;rounded=0;width=10.857142857142858;endSize=6.24;entryX=0.25;entryY=1;entryDx=0;entryDy=0;" edge="1" parent="1">
          <mxGeometry width="50" height="50" relative="1" as="geometry">
            <mxPoint x="179.8" y="240" as="sourcePoint" />
            <mxPoint x="179.8" y="200" as="targetPoint" />
          </mxGeometry>
        </mxCell>
        <mxCell id="lD7IAFioV_3JpQAQfQ4Z-18" value="" style="shape=flexArrow;endArrow=classic;html=1;rounded=0;width=10.857142857142858;endSize=6.24;entryX=0.25;entryY=1;entryDx=0;entryDy=0;" edge="1" parent="1">
          <mxGeometry width="50" height="50" relative="1" as="geometry">
            <mxPoint x="179.8" y="160" as="sourcePoint" />
            <mxPoint x="179.8" y="120" as="targetPoint" />
          </mxGeometry>
        </mxCell>
        <mxCell id="lD7IAFioV_3JpQAQfQ4Z-19" value="Пользователь" style="shape=umlActor;verticalLabelPosition=bottom;verticalAlign=top;html=1;outlineConnect=0;" vertex="1" parent="1">
          <mxGeometry x="265" y="-80" width="30" height="60" as="geometry" />
        </mxCell>
        <mxCell id="lD7IAFioV_3JpQAQfQ4Z-20" value="" style="shape=flexArrow;endArrow=classic;startArrow=classic;html=1;rounded=0;exitX=0.5;exitY=0;exitDx=0;exitDy=0;" edge="1" parent="1" source="lD7IAFioV_3JpQAQfQ4Z-1">
          <mxGeometry width="100" height="100" relative="1" as="geometry">
            <mxPoint x="260" y="140" as="sourcePoint" />
            <mxPoint x="280" y="10" as="targetPoint" />
          </mxGeometry>
        </mxCell>
      </root>
    </mxGraphModel>
  </diagram>
</mxfile>
